<?xml version="1.0" standalone="no"?>
<!DOCTYPE svg PUBLIC "-//W3C//DTD SVG 20010904//EN"
 "http://www.w3.org/TR/2001/REC-SVG-20010904/DTD/svg10.dtd">
<svg version="1.0" xmlns="http://www.w3.org/2000/svg"
 width="192.000000pt" height="192.000000pt" viewBox="0 0 192.000000 192.000000"
 preserveAspectRatio="xMidYMid meet">
<metadata>
Created by potrace 1.11, written by Peter Selinger 2001-2013
</metadata>
<g transform="translate(0.000000,192.000000) scale(0.100000,-0.100000)"
fill="#000000" stroke="none">
<path d="M1205 1680 c-156 -33 -280 -126 -344 -255 -17 -33 -32 -68 -35 -77
-3 -10 -14 -18 -24 -18 -16 0 -20 10 -25 58 -11 130 -105 226 -232 239 -102
11 -209 -48 -258 -141 -30 -57 -30 -165 0 -222 24 -45 89 -108 122 -119 22 -7
27 -20 11 -30 -5 -3 -19 -38 -31 -77 -65 -214 69 -422 314 -484 98 -26 189
-14 317 40 12 5 15 -5 16 -61 0 -103 51 -189 139 -236 56 -30 164 -30 221 0
127 67 178 226 116 358 -27 57 -89 124 -115 126 -7 0 15 8 48 18 142 40 253
133 314 261 34 71 36 81 36 175 0 95 -2 104 -36 175 -81 167 -237 267 -429
275 -47 2 -103 0 -125 -5z"/>
</g>
</svg>
